{
	"meshes":[{
		"name":"note3",
		"primitives":[{
			"attributes":{
				"POSITION":1,
				"NORMAL":2,
				"TEXCOORD_0":3
			},
			"indices":0
		}]
	}],
	"asset":{
		"version":"2.0",
		"generator":"Created using the official Cinema 4D glTF Exporter 1.000x284978"
	},
	"scenes":[{
		"nodes":[0]
	}],
	"buffers":[{
		"uri":"data:application/octet-stream;base64,",
		"byteLength":46880
	}],
	"nodes":[{
		"mesh":0,
		"name":"note3",
		"translation":[-3.7560696601867677,
		-2.0160300731658937,
		0.35111957788467409],
		"rotation":[-0.11470231413841248,
		-0.4401686489582062,
		0.10740910470485687,
		-0.8840578198432922],
		"scale":[1.0,
		1.0,
		1.0]
	}],
	"accessors":[{
		"bufferView":0,
		"type":"SCALAR",
		"componentType":5123,
		"count":6000,
		"min":[0],
		"byteOffset":0,
		"max":[1089]
	},
	{
		"bufferView":1,
		"type":"VEC3",
		"componentType":5126,
		"count":1090,
		"min":[-0.5752379298210144,
		-1.445844292640686,
		-0.2494831532239914],
		"byteOffset":0,
		"max":[0.5752379298210144,
		1.445844292640686,
		0.2494831532239914]
	},
	{
		"bufferView":1,
		"type":"VEC3",
		"componentType":5126,
		"count":1090,
		"min":[-0.9984761476516724,
		-0.9850646257400513,
		-0.9999987483024597],
		"byteOffset":12,
		"max":[0.9999880790710449,
		0.9909926056861877,
		0.9999871253967285]
	},
	{
		"bufferView":1,
		"type":"VEC2",
		"componentType":5126,
		"count":1090,
		"min":[0.0019531224388629199,
		0.0019530653953552247],
		"byteOffset":24,
		"max":[0.9184610843658447,
		0.9980467557907105]
	}],
	"bufferViews":[{
		"buffer":0,
		"byteOffset":0,
		"byteLength":12000,
		"target":34963
	},
	{
		"buffer":0,
		"byteOffset":12000,
		"byteLength":34880,
		"target":34962,
		"byteStride":32
	}]
}