{
	"meshes":[{
		"name":"note5",
		"primitives":[{
			"attributes":{
				"POSITION":1,
				"NORMAL":2,
				"TEXCOORD_0":3
			},
			"indices":0
		}]
	}],
	"asset":{
		"version":"2.0",
		"generator":"Created using the official Cinema 4D glTF Exporter 1.000x284978"
	},
	"scenes":[{
		"nodes":[0]
	}],
	"buffers":[{
		"uri":"data:application/octet-stream;base64,",
		"byteLength":43916
	}],
	"nodes":[{
		"mesh":0,
		"name":"note5",
		"translation":[-6.830755710601807,
		2.6814558506011965,
		-1.981248140335083],
		"rotation":[0.07610461860895157,
		0.2580595910549164,
		0.10315106064081192,
		0.9575871825218201],
		"scale":[1.0,
		1.0,
		1.0]
	}],
	"accessors":[{
		"bufferView":0,
		"type":"SCALAR",
		"componentType":5123,
		"count":5766,
		"min":[0],
		"byteOffset":0,
		"max":[1011]
	},
	{
		"bufferView":1,
		"type":"VEC3",
		"componentType":5126,
		"count":1012,
		"min":[-1.0042431354522706,
		-1.2850282192230225,
		-0.2525066137313843],
		"byteOffset":0,
		"max":[1.0042431354522706,
		1.2850282192230225,
		0.2525066137313843]
	},
	{
		"bufferView":1,
		"type":"VEC3",
		"componentType":5126,
		"count":1012,
		"min":[-0.9999909996986389,
		-0.9993008971214294,
		-0.9999119639396668],
		"byteOffset":12,
		"max":[0.9999939799308777,
		0.9991415739059448,
		0.9999772906303406]
	},
	{
		"bufferView":1,
		"type":"VEC2",
		"componentType":5126,
		"count":1012,
		"min":[0.0019531315192580225,
		0.0019530057907104493],
		"byteOffset":24,
		"max":[0.9154067039489746,
		0.998046875]
	}],
	"bufferViews":[{
		"buffer":0,
		"byteOffset":0,
		"byteLength":11532,
		"target":34963
	},
	{
		"buffer":0,
		"byteOffset":11532,
		"byteLength":32384,
		"target":34962,
		"byteStride":32
	}]
}