{
	"meshes":[{
		"name":"Plane",
		"primitives":[{
			"attributes":{
				"POSITION":1,
				"NORMAL":2,
				"TEXCOORD_0":3
			},
			"indices":0
		}]
	}],
	"asset":{
		"version":"2.0",
		"generator":"Created using the official Cinema 4D glTF Exporter 1.000x284978"
	},
	"scenes":[{
		"nodes":[0]
	}],
	"buffers":[{
		"uri":"data:application/octet-stream;base64,",
		"byteLength":140
	}],
	"nodes":[{
		"mesh":0,
		"name":"Plane"
	}],
	"accessors":[{
		"bufferView":0,
		"type":"SCALAR",
		"componentType":5123,
		"count":6,
		"min":[0],
		"byteOffset":0,
		"max":[3]
	},
	{
		"bufferView":1,
		"type":"VEC3",
		"componentType":5126,
		"count":4,
		"min":[-20.121746063232423,
		-11.318482398986817,
		-7.334752559661865],
		"byteOffset":0,
		"max":[20.121746063232423,
		11.318482398986817,
		-7.334752559661865]
	},
	{
		"bufferView":1,
		"type":"VEC3",
		"componentType":5126,
		"count":4,
		"min":[0.0,
		7.847151451380254e-17,
		1.0],
		"byteOffset":12,
		"max":[0.0,
		7.847151451380254e-17,
		1.0]
	},
	{
		"bufferView":1,
		"type":"VEC2",
		"componentType":5126,
		"count":4,
		"min":[0.0,
		0.0],
		"byteOffset":24,
		"max":[1.0,
		1.0]
	}],
	"bufferViews":[{
		"buffer":0,
		"byteOffset":0,
		"byteLength":12,
		"target":34963
	},
	{
		"buffer":0,
		"byteOffset":12,
		"byteLength":128,
		"target":34962,
		"byteStride":32
	}]
}