{
	"materials":[{
		"pbrMetallicRoughness":{
			"baseColorFactor":[1.0,
			1.0,
			1.0,
			1.0],
			"metallicFactor":1.0,
			"roughnessFactor":1.0
		},
		"emissiveFactor":[0.0,
		0.0,
		0.0],
		"alphaMode":"OPAQUE",
		"doubleSided":false,
		"name":""
	}],
	"asset":{
		"version":"2.0",
		"generator":"Created using the official Cinema 4D glTF Exporter 1.000x284978"
	},
	"scenes":[{
		"nodes":[0]
	}],
	"nodes":[{
		"name":"backing",
		"mesh":0
	}],
	"meshes":[{
		"name":"backing",
		"primitives":[{
			"attributes":{
				"POSITION":1,
				"NORMAL":2,
				"TEXCOORD_0":3
			},
			"indices":0,
			"material":0
		}]
	}],
	"accessors":[{
		"bufferView":0,
		"type":"SCALAR",
		"componentType":5123,
		"count":270,
		"byteOffset":0,
		"min":[0],
		"max":[91]
	},
	{
		"bufferView":1,
		"type":"VEC3",
		"componentType":5126,
		"count":92,
		"byteOffset":0,
		"min":[-24.81009864807129,
		-8.464273452758789,
		-11.313673973083496],
		"max":[24.81009864807129,
		13.696471214294434,
		6.481517791748047]
	},
	{
		"bufferView":1,
		"type":"VEC3",
		"componentType":5126,
		"count":92,
		"byteOffset":12,
		"min":[0.0,
		-0.034900374710559848,
		0.0],
		"max":[1.3595467756027658e-17,
		1.0,
		0.9997214674949646]
	},
	{
		"bufferView":1,
		"type":"VEC2",
		"componentType":5126,
		"count":92,
		"byteOffset":24,
		"min":[0.00037504604551941156,
		0.000325255561619997],
		"max":[0.9990253448486328,
		0.9990253448486328]
	}],
	"bufferViews":[{
		"buffer":0,
		"byteOffset":0,
		"byteLength":540,
		"target":34963
	},
	{
		"byteStride":32,
		"buffer":0,
		"byteOffset":540,
		"byteLength":2944,
		"target":34962
	}],
	"buffers":[{
		"uri":"data:application/octet-stream;base64,",
		"byteLength":3484
	}]
}