{
	"scenes":[{
		"nodes":[0]
	}],
	"asset":{
		"version":"2.0",
		"generator":"Created using the official Cinema 4D glTF Exporter 1.000x284978"
	},
	"buffers":[{
		"uri":"data:application/octet-stream;base64,",
		"byteLength":85548
	}],
	"nodes":[{
		"name":"cowboyhat",
		"mesh":0
	}],
	"meshes":[{
		"name":"cowboyhat",
		"primitives":[{
			"attributes":{
				"POSITION":1,
				"NORMAL":2,
				"TEXCOORD_0":3
			},
			"indices":0,
			"material":0
		}]
	}],
	"accessors":[{
		"bufferView":0,
		"type":"SCALAR",
		"componentType":5123,
		"count":10758,
		"byteOffset":0,
		"min":[0],
		"max":[2000]
	},
	{
		"bufferView":1,
		"type":"VEC3",
		"componentType":5126,
		"count":2001,
		"byteOffset":0,
		"min":[-1.6759207248687745,
		0.6477610468864441,
		-1.9770381450653077],
		"max":[1.7163764238357545,
		2.7337870597839357,
		1.9497263431549073]
	},
	{
		"bufferView":1,
		"type":"VEC3",
		"componentType":5126,
		"count":2001,
		"byteOffset":12,
		"min":[-0.9995588064193726,
		-0.9998947978019714,
		-0.9996377825737],
		"max":[0.9984945058822632,
		0.9997842907905579,
		0.9998644590377808]
	},
	{
		"bufferView":1,
		"type":"VEC2",
		"componentType":5126,
		"count":2001,
		"byteOffset":24,
		"min":[0.0019531354773789646,
		0.0019531846046447756],
		"max":[0.9059720039367676,
		0.998046875]
	}],
	"bufferViews":[{
		"byteLength":21516,
		"buffer":0,
		"byteOffset":0,
		"target":34963
	},
	{
		"byteLength":64032,
		"buffer":0,
		"byteOffset":21516,
		"target":34962,
		"byteStride":32
	}],
	"materials":[{
		"pbrMetallicRoughness":{
			"baseColorFactor":[1.0,
			1.0,
			1.0,
			1.0],
			"metallicFactor":1.0,
			"roughnessFactor":1.0
		},
		"emissiveFactor":[0.0,
		0.0,
		0.0],
		"alphaMode":"OPAQUE",
		"doubleSided":false,
		"name":""
	}]
}