{
	"scenes":[{
		"nodes":[0]
	}],
	"asset":{
		"version":"2.0",
		"generator":"Created using the official Cinema 4D glTF Exporter 1.000x284978"
	},
	"buffers":[{
		"uri":"data:application/octet-stream;base64,",
		"byteLength":101824
	}],
	"nodes":[{
		"name":"eyes.4",
		"mesh":0
	}],
	"meshes":[{
		"name":"eyes.4",
		"primitives":[{
			"attributes":{
				"POSITION":1,
				"NORMAL":2,
				"TEXCOORD_0":3
			},
			"indices":0
		}]
	}],
	"accessors":[{
		"bufferView":0,
		"type":"SCALAR",
		"componentType":5123,
		"count":11808,
		"byteOffset":0,
		"min":[0],
		"max":[2443]
	},
	{
		"bufferView":1,
		"type":"VEC3",
		"componentType":5126,
		"count":2444,
		"byteOffset":0,
		"min":[-0.6699061989784241,
		0.4382747709751129,
		0.7637268304824829],
		"max":[0.6699061989784241,
		1.0472859144210816,
		1.0147895812988282]
	},
	{
		"bufferView":1,
		"type":"VEC3",
		"componentType":5126,
		"count":2444,
		"byteOffset":12,
		"min":[-0.9945167899131775,
		-1.0,
		-0.9991150498390198],
		"max":[0.9945167899131775,
		1.0,
		0.9991150498390198]
	},
	{
		"bufferView":1,
		"type":"VEC2",
		"componentType":5126,
		"count":2444,
		"byteOffset":24,
		"min":[0.00032565899891778827,
		0.0003727754228748381],
		"max":[0.9990253448486328,
		0.9990253448486328]
	}],
	"bufferViews":[{
		"byteLength":23616,
		"buffer":0,
		"byteOffset":0,
		"target":34963
	},
	{
		"byteLength":78208,
		"buffer":0,
		"byteOffset":23616,
		"target":34962,
		"byteStride":32
	}]
}