{
	"asset":{
		"version":"2.0",
		"generator":"Created using the official Cinema 4D glTF Exporter 1.000x284978"
	},
	"scenes":[{
		"nodes":[0]
	}],
	"nodes":[{
		"name":"eyes",
		"mesh":0
	}],
	"meshes":[{
		"name":"eyes",
		"primitives":[{
			"attributes":{
				"POSITION":1,
				"NORMAL":2,
				"TEXCOORD_0":3
			},
			"indices":0
		}]
	}],
	"accessors":[{
		"bufferView":0,
		"type":"SCALAR",
		"componentType":5123,
		"count":12960,
		"byteOffset":0,
		"min":[0],
		"max":[2641]
	},
	{
		"bufferView":1,
		"type":"VEC3",
		"componentType":5126,
		"count":2642,
		"byteOffset":0,
		"min":[-0.6926618814468384,
		0.4382747709751129,
		0.743101179599762],
		"max":[0.6926618814468384,
		1.0543243885040284,
		1.0354151725769044]
	},
	{
		"bufferView":1,
		"type":"VEC3",
		"componentType":5126,
		"count":2642,
		"byteOffset":12,
		"min":[-0.9984579682350159,
		-1.0,
		-0.9991150498390198],
		"max":[0.9984579682350159,
		1.0,
		0.9991150498390198]
	},
	{
		"bufferView":1,
		"type":"VEC2",
		"componentType":5126,
		"count":2642,
		"byteOffset":24,
		"min":[0.00032565899891778827,
		0.0003727754228748381],
		"max":[0.9990253448486328,
		0.9990253448486328]
	}],
	"bufferViews":[{
		"buffer":0,
		"byteOffset":0,
		"byteLength":25920,
		"target":34963
	},
	{
		"byteStride":32,
		"buffer":0,
		"byteOffset":25920,
		"byteLength":84544,
		"target":34962
	}],
	"buffers":[{
		"uri":"data:application/octet-stream;base64,",
		"byteLength":110464
	}]
}