{
	"asset":{
		"version":"2.0",
		"generator":"Created using the official Cinema 4D glTF Exporter 1.000x284978"
	},
	"scenes":[{
		"nodes":[0]
	}],
	"nodes":[{
		"name":"glasses",
		"mesh":0
	}],
	"meshes":[{
		"name":"glasses",
		"primitives":[{
			"attributes":{
				"POSITION":1,
				"NORMAL":2,
				"TEXCOORD_0":3
			},
			"indices":0
		}]
	}],
	"accessors":[{
		"bufferView":0,
		"type":"SCALAR",
		"componentType":5123,
		"count":5328,
		"byteOffset":0,
		"min":[0],
		"max":[1211]
	},
	{
		"bufferView":1,
		"type":"VEC3",
		"componentType":5126,
		"count":1212,
		"byteOffset":0,
		"min":[-0.858351469039917,
		0.35500189661979678,
		1.0323768854141236],
		"max":[0.858351469039917,
		0.9583598375320435,
		1.1171444654464722]
	},
	{
		"bufferView":1,
		"type":"VEC3",
		"componentType":5126,
		"count":1212,
		"byteOffset":12,
		"min":[-0.9999999403953552,
		-1.0,
		-1.0],
		"max":[0.9999999403953552,
		1.0,
		1.0]
	},
	{
		"bufferView":1,
		"type":"VEC2",
		"componentType":5126,
		"count":1212,
		"byteOffset":24,
		"min":[0.0003255731426179409,
		0.00033629738027229905],
		"max":[0.9990253448486328,
		0.9990253448486328]
	}],
	"bufferViews":[{
		"buffer":0,
		"byteOffset":0,
		"byteLength":10656,
		"target":34963
	},
	{
		"byteStride":32,
		"buffer":0,
		"byteOffset":10656,
		"byteLength":38784,
		"target":34962
	}],
	"buffers":[{
		"uri":"data:application/octet-stream;base64,",
		"byteLength":49440
	}]
}