{
	"asset":{
		"version":"2.0",
		"generator":"Created using the official Cinema 4D glTF Exporter 1.000x284978"
	},
	"scenes":[{
		"nodes":[0]
	}],
	"nodes":[{
		"name":"hat",
		"mesh":0
	}],
	"meshes":[{
		"name":"hat",
		"primitives":[{
			"attributes":{
				"POSITION":1,
				"NORMAL":2,
				"TEXCOORD_0":3
			},
			"indices":0
		}]
	}],
	"accessors":[{
		"bufferView":0,
		"type":"SCALAR",
		"componentType":5123,
		"count":16992,
		"byteOffset":0,
		"min":[0],
		"max":[3056]
	},
	{
		"bufferView":1,
		"type":"VEC3",
		"componentType":5126,
		"count":3057,
		"byteOffset":0,
		"min":[-1.314003348350525,
		0.9989169836044312,
		-1.2740416526794434],
		"max":[0.9517707824707031,
		2.0799829959869386,
		1.6396352052688599]
	},
	{
		"bufferView":1,
		"type":"VEC3",
		"componentType":5126,
		"count":3057,
		"byteOffset":12,
		"min":[-0.998198390007019,
		-0.9999335408210754,
		-0.9994547963142395],
		"max":[0.9981982707977295,
		0.9999455809593201,
		0.999424159526825]
	},
	{
		"bufferView":1,
		"type":"VEC2",
		"componentType":5126,
		"count":3057,
		"byteOffset":24,
		"min":[0.00034671061439439654,
		0.000325236062053591],
		"max":[0.9990253448486328,
		0.9990253448486328]
	}],
	"bufferViews":[{
		"buffer":0,
		"byteOffset":0,
		"byteLength":33984,
		"target":34963
	},
	{
		"byteStride":32,
		"buffer":0,
		"byteOffset":33984,
		"byteLength":97824,
		"target":34962
	}],
	"buffers":[{
		"uri":"data:application/octet-stream;base64,",
		"byteLength":131808
	}]
}