{
	"asset":{
		"version":"2.0",
		"generator":"Created using the official Cinema 4D glTF Exporter 1.000x284978"
	},
	"scenes":[{
		"nodes":[0]
	}],
	"nodes":[{
		"name":"hoodie",
		"mesh":0
	}],
	"meshes":[{
		"name":"hoodie",
		"primitives":[{
			"attributes":{
				"POSITION":1,
				"NORMAL":2,
				"TEXCOORD_0":3
			},
			"indices":0
		}]
	}],
	"accessors":[{
		"bufferView":0,
		"type":"SCALAR",
		"componentType":5123,
		"count":22560,
		"byteOffset":0,
		"min":[0],
		"max":[4211]
	},
	{
		"bufferView":1,
		"type":"VEC3",
		"componentType":5126,
		"count":4212,
		"byteOffset":0,
		"min":[-1.9820882081985474,
		-4.455593109130859,
		-1.6203622817993165],
		"max":[1.9820884466171265,
		0.3520362973213196,
		0.8132216930389404]
	},
	{
		"bufferView":1,
		"type":"VEC3",
		"componentType":5126,
		"count":4212,
		"byteOffset":12,
		"min":[-0.999933660030365,
		-0.9999856352806091,
		-0.9999976754188538],
		"max":[0.999933660030365,
		0.9999889731407166,
		0.9999976754188538]
	},
	{
		"bufferView":1,
		"type":"VEC2",
		"componentType":5126,
		"count":4212,
		"byteOffset":24,
		"min":[0.0003349198086652905,
		0.0003255732008256018],
		"max":[0.9990253448486328,
		0.9990253448486328]
	}],
	"bufferViews":[{
		"buffer":0,
		"byteOffset":0,
		"byteLength":45120,
		"target":34963
	},
	{
		"byteStride":32,
		"buffer":0,
		"byteOffset":45120,
		"byteLength":134784,
		"target":34962
	}],
	"buffers":[{
		"uri":"data:application/octet-stream;base64,",
		"byteLength":179904
	}]
}