{
	"scenes":[{
		"nodes":[0]
	}],
	"asset":{
		"version":"2.0",
		"generator":"Created using the official Cinema 4D glTF Exporter 1.000x284978"
	},
	"buffers":[{
		"uri":"data:application/octet-stream;base64,",
		"byteLength":124192
	}],
	"nodes":[{
		"name":"mouth4",
		"mesh":0
	}],
	"meshes":[{
		"name":"mouth4",
		"primitives":[{
			"attributes":{
				"POSITION":1,
				"NORMAL":2,
				"TEXCOORD_0":3
			},
			"indices":0
		}]
	}],
	"accessors":[{
		"bufferView":0,
		"type":"SCALAR",
		"componentType":5123,
		"count":15120,
		"byteOffset":0,
		"min":[0],
		"max":[2935]
	},
	{
		"bufferView":1,
		"type":"VEC3",
		"componentType":5126,
		"count":2936,
		"byteOffset":0,
		"min":[-0.27820146083831789,
		0.2818670868873596,
		0.9671922326087952],
		"max":[0.27820146083831789,
		0.5348284244537354,
		1.0971914529800416]
	},
	{
		"bufferView":1,
		"type":"VEC3",
		"componentType":5126,
		"count":2936,
		"byteOffset":12,
		"min":[-0.9999974966049194,
		-0.9998849034309387,
		-0.9999998807907105],
		"max":[0.9999974370002747,
		0.9998849034309387,
		0.9999998211860657]
	},
	{
		"bufferView":1,
		"type":"VEC2",
		"componentType":5126,
		"count":2936,
		"byteOffset":24,
		"min":[0.0,
		0.0],
		"max":[1.0,
		1.0]
	}],
	"bufferViews":[{
		"byteLength":30240,
		"buffer":0,
		"byteOffset":0,
		"target":34963
	},
	{
		"byteLength":93952,
		"buffer":0,
		"byteOffset":30240,
		"target":34962,
		"byteStride":32
	}]
}