{
	"asset":{
		"version":"2.0",
		"generator":"Created using the official Cinema 4D glTF Exporter 1.000x284978"
	},
	"scenes":[{
		"nodes":[0]
	}],
	"nodes":[{
		"name":"parka",
		"mesh":0
	}],
	"meshes":[{
		"name":"parka",
		"primitives":[{
			"attributes":{
				"POSITION":1,
				"NORMAL":2,
				"TEXCOORD_0":3
			},
			"indices":0
		}]
	}],
	"accessors":[{
		"bufferView":0,
		"type":"SCALAR",
		"componentType":5123,
		"count":26688,
		"byteOffset":0,
		"min":[0],
		"max":[5078]
	},
	{
		"bufferView":1,
		"type":"VEC3",
		"componentType":5126,
		"count":5079,
		"byteOffset":0,
		"min":[-1.9445486068725587,
		-5.028427600860596,
		-0.8540904521942139],
		"max":[1.944548487663269,
		-0.010656774044036866,
		0.9005595445632935]
	},
	{
		"bufferView":1,
		"type":"VEC3",
		"componentType":5126,
		"count":5079,
		"byteOffset":12,
		"min":[-0.9999417066574097,
		-0.9993858337402344,
		-1.0],
		"max":[0.9999417066574097,
		0.9994788765907288,
		1.0]
	},
	{
		"bufferView":1,
		"type":"VEC2",
		"componentType":5126,
		"count":5079,
		"byteOffset":24,
		"min":[0.00032588865724392235,
		0.00038062920793890953],
		"max":[0.9990253448486328,
		0.9990253448486328]
	}],
	"bufferViews":[{
		"buffer":0,
		"byteOffset":0,
		"byteLength":53376,
		"target":34963
	},
	{
		"byteStride":32,
		"buffer":0,
		"byteOffset":53376,
		"byteLength":162528,
		"target":34962
	}],
	"buffers":[{
		"uri":"data:application/octet-stream;base64,",
		"byteLength":215904
	}]
}