{
	"asset":{
		"version":"2.0",
		"generator":"Created using the official Cinema 4D glTF Exporter 1.000x284978"
	},
	"scenes":[{
		"nodes":[0]
	}],
	"nodes":[{
		"name":"skin",
		"mesh":0
	}],
	"meshes":[{
		"name":"skin",
		"primitives":[{
			"attributes":{
				"POSITION":1,
				"NORMAL":2,
				"TEXCOORD_0":3
			},
			"indices":0
		}]
	}],
	"accessors":[{
		"bufferView":0,
		"type":"SCALAR",
		"componentType":5123,
		"count":8304,
		"byteOffset":0,
		"min":[0],
		"max":[1598]
	},
	{
		"bufferView":1,
		"type":"VEC3",
		"componentType":5126,
		"count":1599,
		"byteOffset":0,
		"min":[-1.8276084661483765,
		-4.043107509613037,
		-0.7442594170570374],
		"max":[1.827608346939087,
		-0.4114280045032501,
		0.6577661633491516]
	},
	{
		"bufferView":1,
		"type":"VEC3",
		"componentType":5126,
		"count":1599,
		"byteOffset":12,
		"min":[-0.9999861717224121,
		-1.0,
		-0.9999278783798218],
		"max":[0.9999862313270569,
		0.9999999403953552,
		0.9999930262565613]
	},
	{
		"bufferView":1,
		"type":"VEC2",
		"componentType":5126,
		"count":1599,
		"byteOffset":24,
		"min":[0.0003254129260312766,
		0.0003314538626000285],
		"max":[0.9990253448486328,
		0.9990253448486328]
	}],
	"bufferViews":[{
		"buffer":0,
		"byteOffset":0,
		"byteLength":16608,
		"target":34963
	},
	{
		"byteStride":32,
		"buffer":0,
		"byteOffset":16608,
		"byteLength":51168,
		"target":34962
	}],
	"buffers":[{
		"uri":"data:application/octet-stream;base64,",
		"byteLength":67776
	}]
}