{
	"scenes":[{
		"nodes":[0]
	}],
	"asset":{
		"version":"2.0",
		"generator":"Created using the official Cinema 4D glTF Exporter 1.000x284978"
	},
	"buffers":[{
		"uri":"data:application/octet-stream;base64,",
		"byteLength":75220
	}],
	"nodes":[{
		"name":"tophat.1",
		"mesh":0
	}],
	"meshes":[{
		"name":"tophat.1",
		"primitives":[{
			"attributes":{
				"POSITION":1,
				"NORMAL":2,
				"TEXCOORD_0":3
			},
			"indices":0,
			"material":0
		}]
	}],
	"accessors":[{
		"bufferView":0,
		"type":"SCALAR",
		"componentType":5123,
		"count":7818,
		"byteOffset":0,
		"min":[0],
		"max":[1861]
	},
	{
		"bufferView":1,
		"type":"VEC3",
		"componentType":5126,
		"count":1862,
		"byteOffset":0,
		"min":[-1.3035119771957398,
		0.8002142906188965,
		-1.2534607648849488],
		"max":[1.2551562786102296,
		2.971984386444092,
		1.2825446128845215]
	},
	{
		"bufferView":1,
		"type":"VEC3",
		"componentType":5126,
		"count":1862,
		"byteOffset":12,
		"min":[-0.9994675517082214,
		-0.9999507069587708,
		-0.9998535513877869],
		"max":[0.9998086094856262,
		0.9999290704727173,
		0.9989399313926697]
	},
	{
		"bufferView":1,
		"type":"VEC2",
		"componentType":5126,
		"count":1862,
		"byteOffset":24,
		"min":[0.0019531501457095148,
		0.4721300005912781],
		"max":[0.998046875,
		0.998046875]
	}],
	"bufferViews":[{
		"byteLength":15636,
		"buffer":0,
		"byteOffset":0,
		"target":34963
	},
	{
		"byteLength":59584,
		"buffer":0,
		"byteOffset":15636,
		"target":34962,
		"byteStride":32
	}],
	"materials":[{
		"pbrMetallicRoughness":{
			"baseColorFactor":[1.0,
			1.0,
			1.0,
			1.0],
			"metallicFactor":1.0,
			"roughnessFactor":1.0
		},
		"emissiveFactor":[0.0,
		0.0,
		0.0],
		"alphaMode":"OPAQUE",
		"doubleSided":false,
		"name":""
	}]
}