{
	"asset":{
		"version":"2.0",
		"generator":"Created using the official Cinema 4D glTF Exporter 1.000x284978"
	},
	"scenes":[{
		"nodes":[0]
	}],
	"nodes":[{
		"name":"turtleneck",
		"mesh":0
	}],
	"meshes":[{
		"name":"turtleneck",
		"primitives":[{
			"attributes":{
				"POSITION":1,
				"NORMAL":2,
				"TEXCOORD_0":3
			},
			"indices":0
		}]
	}],
	"accessors":[{
		"bufferView":0,
		"type":"SCALAR",
		"componentType":5123,
		"count":16032,
		"byteOffset":0,
		"min":[0],
		"max":[2979]
	},
	{
		"bufferView":1,
		"type":"VEC3",
		"componentType":5126,
		"count":2980,
		"byteOffset":0,
		"min":[-1.9413223266601563,
		-4.2743988037109379,
		-0.8540904521942139],
		"max":[1.9413225650787354,
		-0.2186174988746643,
		0.8132216930389404]
	},
	{
		"bufferView":1,
		"type":"VEC3",
		"componentType":5126,
		"count":2980,
		"byteOffset":12,
		"min":[-0.999930739402771,
		-0.9947108626365662,
		-0.9999974370002747],
		"max":[0.999930739402771,
		0.994284451007843,
		0.9999973773956299]
	},
	{
		"bufferView":1,
		"type":"VEC2",
		"componentType":5126,
		"count":2980,
		"byteOffset":24,
		"min":[0.0003547366359271109,
		0.0003255726769566536],
		"max":[0.6660168766975403,
		0.9990253448486328]
	}],
	"bufferViews":[{
		"buffer":0,
		"byteOffset":0,
		"byteLength":32064,
		"target":34963
	},
	{
		"byteStride":32,
		"buffer":0,
		"byteOffset":32064,
		"byteLength":95360,
		"target":34962
	}],
	"buffers":[{
		"uri":"data:application/octet-stream;base64,",
		"byteLength":127424
	}]
}