{
    "asset" : {
        "generator" : "Khronos glTF Blender I/O v1.6.16",
        "version" : "2.0"
    },
    "scene" : 0,
    "scenes" : [
        {
            "name" : "Scene",
            "nodes" : [
                0
            ]
        }
    ],
    "nodes" : [
        {
            "mesh" : 0,
            "name" : "Note",
            "rotation" : [
                0.6537463068962097,
                0.26947328448295593,
                -0.2694733142852783,
                0.6537461876869202
            ],
            "scale" : [
                1.286771297454834,
                1.286771297454834,
                1.286771297454834
            ],
            "translation" : [
                0,
                0.0936448723077774,
                0.3685469627380371
            ]
        }
    ],
    "meshes" : [
        {
            "name" : "Note",
            "primitives" : [
                {
                    "attributes" : {
                        "POSITION" : 0,
                        "NORMAL" : 1
                    },
                    "indices" : 2
                }
            ]
        }
    ],
    "accessors" : [
        {
            "bufferView" : 0,
            "componentType" : 5126,
            "count" : 8826,
            "max" : [
                0.5808020234107971,
                0.0856110006570816,
                0.0460049994289875
            ],
            "min" : [
                -0.0856110006570816,
                -0.5808020234107971,
                -1.034203052520752
            ],
            "type" : "VEC3"
        },
        {
            "bufferView" : 1,
            "componentType" : 5126,
            "count" : 8826,
            "type" : "VEC3"
        },
        {
            "bufferView" : 2,
            "componentType" : 5123,
            "count" : 44868,
            "type" : "SCALAR"
        }
    ],
    "bufferViews" : [
        {
            "buffer" : 0,
            "byteLength" : 105912,
            "byteOffset" : 0
        },
        {
            "buffer" : 0,
            "byteLength" : 105912,
            "byteOffset" : 105912
        },
        {
            "buffer" : 0,
            "byteLength" : 89736,
            "byteOffset" : 211824
        }
    ],
    "buffers" : [
        {
            "byteLength" : 301560,
            "uri" : "data:application/octet-stream;base64,"
        }
    ]
}
