{
	"meshes":[{
		"name":"note1",
		"primitives":[{
			"attributes":{
				"POSITION":1,
				"NORMAL":2,
				"TEXCOORD_0":3
			},
			"indices":0
		}]
	}],
	"asset":{
		"version":"2.0",
		"generator":"Created using the official Cinema 4D glTF Exporter 1.000x284978"
	},
	"scenes":[{
		"nodes":[0]
	}],
	"buffers":[{
		"uri":"data:application/octet-stream;base64,",
		"byteLength":52176
	}],
	"nodes":[{
		"mesh":0,
		"name":"note1",
		"translation":[-1.8142801523208619,
		4.949947834014893,
		2.0755436420440676],
		"rotation":[0.2518059313297272,
		0.19338387250900269,
		0.02463703788816929,
		0.9479395747184753],
		"scale":[1.0,
		1.0,
		1.0]
	}],
	"accessors":[{
		"bufferView":0,
		"type":"SCALAR",
		"componentType":5123,
		"count":6984,
		"min":[0],
		"byteOffset":0,
		"max":[1193]
	},
	{
		"bufferView":1,
		"type":"VEC3",
		"componentType":5126,
		"count":1194,
		"min":[-1.0498906373977662,
		-1.4300991296768189,
		-0.2733907997608185],
		"byteOffset":0,
		"max":[1.0498906373977662,
		1.4300991296768189,
		0.2733907997608185]
	},
	{
		"bufferView":1,
		"type":"VEC3",
		"componentType":5126,
		"count":1194,
		"min":[-0.9999020099639893,
		-0.9993861317634583,
		-0.9999241828918457],
		"byteOffset":12,
		"max":[0.999767005443573,
		0.9995490908622742,
		0.9999462962150574]
	},
	{
		"bufferView":1,
		"type":"VEC2",
		"componentType":5126,
		"count":1194,
		"min":[0.001953128259629011,
		0.001953125],
		"byteOffset":24,
		"max":[0.8171706199645996,
		0.998046875]
	}],
	"bufferViews":[{
		"buffer":0,
		"byteOffset":0,
		"byteLength":13968,
		"target":34963
	},
	{
		"buffer":0,
		"byteOffset":13968,
		"byteLength":38208,
		"target":34962,
		"byteStride":32
	}]
}