{
	"meshes":[{
		"name":"note4",
		"primitives":[{
			"attributes":{
				"POSITION":1,
				"NORMAL":2,
				"TEXCOORD_0":3
			},
			"indices":0
		}]
	}],
	"asset":{
		"version":"2.0",
		"generator":"Created using the official Cinema 4D glTF Exporter 1.000x284978"
	},
	"scenes":[{
		"nodes":[0]
	}],
	"buffers":[{
		"uri":"data:application/octet-stream;base64,",
		"byteLength":47732
	}],
	"nodes":[{
		"mesh":0,
		"name":"note4",
		"translation":[5.106314182281494,
		2.8862476348876955,
		1.7834962606430054],
		"rotation":[0.2251327484846115,
		0.03819246217608452,
		0.042905423790216449,
		0.9726333618164063],
		"scale":[1.0,
		1.0,
		1.0]
	}],
	"accessors":[{
		"bufferView":0,
		"type":"SCALAR",
		"componentType":5123,
		"count":6186,
		"min":[0],
		"byteOffset":0,
		"max":[1104]
	},
	{
		"bufferView":1,
		"type":"VEC3",
		"componentType":5126,
		"count":1105,
		"min":[-1.1120541095733643,
		-1.1152719259262086,
		-0.22256946563720704],
		"byteOffset":0,
		"max":[1.1120541095733643,
		1.1152719259262086,
		0.22256946563720704]
	},
	{
		"bufferView":1,
		"type":"VEC3",
		"componentType":5126,
		"count":1105,
		"min":[-0.9996410608291626,
		-0.999278724193573,
		-0.9999409317970276],
		"byteOffset":12,
		"max":[0.9986442923545837,
		0.9994323253631592,
		0.9998074769973755]
	},
	{
		"bufferView":1,
		"type":"VEC2",
		"componentType":5126,
		"count":1105,
		"min":[0.0019531229045242072,
		0.001953125],
		"byteOffset":24,
		"max":[0.9794102311134338,
		0.998046875]
	}],
	"bufferViews":[{
		"buffer":0,
		"byteOffset":0,
		"byteLength":12372,
		"target":34963
	},
	{
		"buffer":0,
		"byteOffset":12372,
		"byteLength":35360,
		"target":34962,
		"byteStride":32
	}]
}