{
	"scenes":[{
		"nodes":[0]
	}],
	"asset":{
		"version":"2.0",
		"generator":"Created using the official Cinema 4D glTF Exporter 1.000x284978"
	},
	"buffers":[{
		"uri":"data:application/octet-stream;base64,",
		"byteLength":40652
	}],
	"nodes":[{
		"name":"note2",
		"mesh":0
	}],
	"meshes":[{
		"name":"note2",
		"primitives":[{
			"attributes":{
				"POSITION":1,
				"NORMAL":2,
				"TEXCOORD_0":3
			},
			"indices":0
		}]
	}],
	"accessors":[{
		"bufferView":0,
		"type":"SCALAR",
		"componentType":5123,
		"count":5238,
		"byteOffset":0,
		"min":[0],
		"max":[942]
	},
	{
		"bufferView":1,
		"type":"VEC3",
		"componentType":5126,
		"count":943,
		"byteOffset":0,
		"min":[-0.5716411471366882,
		-1.4327117204666138,
		-0.2696987986564636],
		"max":[0.5716411471366882,
		1.4327117204666138,
		0.2696987986564636]
	},
	{
		"bufferView":1,
		"type":"VEC3",
		"componentType":5126,
		"count":943,
		"byteOffset":12,
		"min":[-0.9998288154602051,
		-0.998364269733429,
		-0.9999650716781616],
		"max":[0.9985909461975098,
		0.9989537000656128,
		0.9998270273208618]
	},
	{
		"bufferView":1,
		"type":"VEC2",
		"componentType":5126,
		"count":943,
		"byteOffset":24,
		"min":[0.0019531125435605646,
		0.17902672290802003],
		"max":[0.9980469346046448,
		0.998046875]
	}],
	"bufferViews":[{
		"byteLength":10476,
		"buffer":0,
		"byteOffset":0,
		"target":34963
	},
	{
		"byteLength":30176,
		"buffer":0,
		"byteOffset":10476,
		"target":34962,
		"byteStride":32
	}]
}