{
	"asset":{
		"version":"2.0",
		"generator":"Created using the official Cinema 4D glTF Exporter 1.000x284978"
	},
	"scenes":[{
		"nodes":[0]
	}],
	"nodes":[{
		"name":"head",
		"mesh":0
	}],
	"meshes":[{
		"name":"head",
		"primitives":[{
			"attributes":{
				"POSITION":1,
				"NORMAL":2,
				"TEXCOORD_0":3
			},
			"indices":0
		}]
	}],
	"accessors":[{
		"bufferView":0,
		"type":"SCALAR",
		"componentType":5123,
		"count":16998,
		"byteOffset":0,
		"min":[0],
		"max":[2880]
	},
	{
		"bufferView":1,
		"type":"VEC3",
		"componentType":5126,
		"count":2881,
		"byteOffset":0,
		"min":[-1.1963021755218506,
		-0.006362616084516048,
		-0.7807438373565674],
		"max":[1.1961281299591065,
		1.7813639640808106,
		0.8642510771751404]
	},
	{
		"bufferView":1,
		"type":"VEC3",
		"componentType":5126,
		"count":2881,
		"byteOffset":12,
		"min":[-0.9962352514266968,
		-0.9999624490737915,
		-0.9998704791069031],
		"max":[0.9973487854003906,
		0.9999078512191773,
		0.9998490810394287]
	},
	{
		"bufferView":1,
		"type":"VEC2",
		"componentType":5126,
		"count":2881,
		"byteOffset":24,
		"min":[0.0019531225552782417,
		0.001953125],
		"max":[0.9231888651847839,
		0.998046875]
	}],
	"bufferViews":[{
		"buffer":0,
		"byteOffset":0,
		"byteLength":33996,
		"target":34963
	},
	{
		"byteStride":32,
		"buffer":0,
		"byteOffset":33996,
		"byteLength":92192,
		"target":34962
	}],
	"buffers":[{
		"uri":"data:application/octet-stream;base64,",
		"byteLength":126188
	}]
}