{
	"scenes":[{
		"nodes":[0]
	}],
	"asset":{
		"version":"2.0",
		"generator":"Created using the official Cinema 4D glTF Exporter 1.000x284978"
	},
	"buffers":[{
		"uri":"data:application/octet-stream;base64,",
		"byteLength":151584
	}],
	"nodes":[{
		"name":"heartglasses.1",
		"mesh":0
	}],
	"meshes":[{
		"name":"heartglasses.1",
		"primitives":[{
			"attributes":{
				"POSITION":1,
				"NORMAL":2,
				"TEXCOORD_0":3
			},
			"indices":0
		}]
	}],
	"accessors":[{
		"bufferView":0,
		"type":"SCALAR",
		"componentType":5123,
		"count":18735,
		"byteOffset":0,
		"min":[0],
		"max":[3565]
	},
	{
		"bufferView":1,
		"type":"VEC3",
		"componentType":5126,
		"count":3566,
		"byteOffset":0,
		"min":[-1.0226017236709595,
		0.1818256676197052,
		-0.8498618602752686],
		"max":[1.0785328149795533,
		1.0922505855560303,
		1.2446708679199219]
	},
	{
		"bufferView":1,
		"type":"VEC3",
		"componentType":5126,
		"count":3566,
		"byteOffset":12,
		"min":[-0.9999617338180542,
		-0.9998118281364441,
		-0.9997312426567078],
		"max":[0.9994089603424072,
		0.9999088644981384,
		0.9999544024467468]
	},
	{
		"bufferView":1,
		"type":"VEC2",
		"componentType":5126,
		"count":3566,
		"byteOffset":24,
		"min":[0.00195313966833055,
		0.5041372776031494],
		"max":[0.998046875,
		0.998046875]
	}],
	"bufferViews":[{
		"byteLength":37470,
		"buffer":0,
		"byteOffset":0,
		"target":34963
	},
	{
		"byteLength":114112,
		"buffer":0,
		"byteOffset":37472,
		"target":34962,
		"byteStride":32
	}]
}