{
	"scenes":[{
		"nodes":[0]
	}],
	"asset":{
		"version":"2.0",
		"generator":"Created using the official Cinema 4D glTF Exporter 1.000x284978"
	},
	"buffers":[{
		"uri":"data:application/octet-stream;base64,",
		"byteLength":22288
	}],
	"nodes":[{
		"name":"mouth2",
		"mesh":0
	}],
	"meshes":[{
		"name":"mouth2",
		"primitives":[{
			"attributes":{
				"POSITION":1,
				"NORMAL":2,
				"TEXCOORD_0":3
			},
			"indices":0
		}]
	}],
	"accessors":[{
		"bufferView":0,
		"type":"SCALAR",
		"componentType":5123,
		"count":2808,
		"byteOffset":0,
		"min":[0],
		"max":[520]
	},
	{
		"bufferView":1,
		"type":"VEC3",
		"componentType":5126,
		"count":521,
		"byteOffset":0,
		"min":[-0.16242073476314546,
		0.25408563017845156,
		0.9446622133255005],
		"max":[0.1620996594429016,
		0.5069138407707214,
		1.0254665613174439]
	},
	{
		"bufferView":1,
		"type":"VEC3",
		"componentType":5126,
		"count":521,
		"byteOffset":12,
		"min":[-0.9999964833259583,
		-0.9998649954795837,
		-0.9999973177909851],
		"max":[0.9999964833259583,
		0.9998639225959778,
		0.9999972581863403]
	},
	{
		"bufferView":1,
		"type":"VEC2",
		"componentType":5126,
		"count":521,
		"byteOffset":24,
		"min":[0.0,
		0.0],
		"max":[1.0,
		1.0]
	}],
	"bufferViews":[{
		"byteLength":5616,
		"buffer":0,
		"byteOffset":0,
		"target":34963
	},
	{
		"byteLength":16672,
		"buffer":0,
		"byteOffset":5616,
		"target":34962,
		"byteStride":32
	}]
}