{
	"scenes":[{
		"nodes":[0]
	}],
	"asset":{
		"version":"2.0",
		"generator":"Created using the official Cinema 4D glTF Exporter 1.000x284978"
	},
	"buffers":[{
		"uri":"data:application/octet-stream;base64,",
		"byteLength":100736
	}],
	"nodes":[{
		"name":"mouth3",
		"mesh":0
	}],
	"meshes":[{
		"name":"mouth3",
		"primitives":[{
			"attributes":{
				"POSITION":1,
				"NORMAL":2,
				"TEXCOORD_0":3
			},
			"indices":0
		}]
	}],
	"accessors":[{
		"bufferView":0,
		"type":"SCALAR",
		"componentType":5123,
		"count":9792,
		"byteOffset":0,
		"min":[0],
		"max":[2535]
	},
	{
		"bufferView":1,
		"type":"VEC3",
		"componentType":5126,
		"count":2536,
		"byteOffset":0,
		"min":[-0.25729838013648989,
		0.3214974105358124,
		0.9350643754005432],
		"max":[0.25729838013648989,
		0.5107160210609436,
		1.0350643396377564]
	},
	{
		"bufferView":1,
		"type":"VEC3",
		"componentType":5126,
		"count":2536,
		"byteOffset":12,
		"min":[-0.9996740818023682,
		-0.999957799911499,
		-0.9935801029205322],
		"max":[0.9996740818023682,
		0.9999572038650513,
		0.9935803413391113]
	},
	{
		"bufferView":1,
		"type":"VEC2",
		"componentType":5126,
		"count":2536,
		"byteOffset":24,
		"min":[0.0003265541745349765,
		0.0003287412109784782],
		"max":[0.9990253448486328,
		0.9990253448486328]
	}],
	"bufferViews":[{
		"byteLength":19584,
		"buffer":0,
		"byteOffset":0,
		"target":34963
	},
	{
		"byteLength":81152,
		"buffer":0,
		"byteOffset":19584,
		"target":34962,
		"byteStride":32
	}]
}