{
	"asset":{
		"version":"2.0",
		"generator":"Created using the official Cinema 4D glTF Exporter 1.000x284978"
	},
	"scenes":[{
		"nodes":[0]
	}],
	"nodes":[{
		"name":"mouth",
		"mesh":0
	}],
	"meshes":[{
		"name":"mouth",
		"primitives":[{
			"attributes":{
				"POSITION":1,
				"NORMAL":2,
				"TEXCOORD_0":3
			},
			"indices":0
		}]
	}],
	"accessors":[{
		"bufferView":0,
		"type":"SCALAR",
		"componentType":5123,
		"count":672,
		"byteOffset":0,
		"min":[0],
		"max":[152]
	},
	{
		"bufferView":1,
		"type":"VEC3",
		"componentType":5126,
		"count":153,
		"byteOffset":0,
		"min":[0.11209189146757126,
		0.2751459777355194,
		0.9703385233879089],
		"max":[0.22342991828918458,
		0.3876165449619293,
		1.083540439605713]
	},
	{
		"bufferView":1,
		"type":"VEC3",
		"componentType":5126,
		"count":153,
		"byteOffset":12,
		"min":[-0.974242091178894,
		-0.9849090576171875,
		-0.9909486770629883],
		"max":[0.9759039878845215,
		0.9849089980125427,
		0.9921028017997742]
	},
	{
		"bufferView":1,
		"type":"VEC2",
		"componentType":5126,
		"count":153,
		"byteOffset":24,
		"min":[0.00036979620927013457,
		0.00032525527058169246],
		"max":[0.9990253448486328,
		0.9990253448486328]
	}],
	"bufferViews":[{
		"buffer":0,
		"byteOffset":0,
		"byteLength":1344,
		"target":34963
	},
	{
		"byteStride":32,
		"buffer":0,
		"byteOffset":1344,
		"byteLength":4896,
		"target":34962
	}],
	"buffers":[{
		"uri":"data:application/octet-stream;base64,",
		"byteLength":6240
	}]
}