{
	"asset":{
		"version":"2.0",
		"generator":"Created using the official Cinema 4D glTF Exporter 1.000x284978"
	},
	"scenes":[{
		"nodes":[0]
	}],
	"nodes":[{
		"name":"shirt",
		"mesh":0
	}],
	"meshes":[{
		"name":"shirt",
		"primitives":[{
			"attributes":{
				"POSITION":1,
				"NORMAL":2,
				"TEXCOORD_0":3
			},
			"indices":0
		}]
	}],
	"accessors":[{
		"bufferView":0,
		"type":"SCALAR",
		"componentType":5123,
		"count":11424,
		"byteOffset":0,
		"min":[0],
		"max":[2249]
	},
	{
		"bufferView":1,
		"type":"VEC3",
		"componentType":5126,
		"count":2250,
		"byteOffset":0,
		"min":[-2.0377278327941896,
		-3.967902898788452,
		-0.8540904521942139],
		"max":[2.0377275943756105,
		-0.4202003479003906,
		0.8132185935974121]
	},
	{
		"bufferView":1,
		"type":"VEC3",
		"componentType":5126,
		"count":2250,
		"byteOffset":12,
		"min":[-0.9999886751174927,
		-0.9779890775680542,
		-0.9999968409538269],
		"max":[0.9999886751174927,
		0.9985536932945252,
		0.9999968409538269]
	},
	{
		"bufferView":1,
		"type":"VEC2",
		"componentType":5126,
		"count":2250,
		"byteOffset":24,
		"min":[0.00036047157482244074,
		0.00032557290978729725],
		"max":[0.6660168766975403,
		0.9990253448486328]
	}],
	"bufferViews":[{
		"buffer":0,
		"byteOffset":0,
		"byteLength":22848,
		"target":34963
	},
	{
		"byteStride":32,
		"buffer":0,
		"byteOffset":22848,
		"byteLength":72000,
		"target":34962
	}],
	"buffers":[{
		"uri":"data:application/octet-stream;base64,",
		"byteLength":94848
	}]
}